# xmcd
#
# Track frame offsets: 
#        150
#        17117
#        41455
#        74866
#        97164
#        111062
#        128875
#        142337
#        162391
#
# Disc length: 2443 seconds
#
# Revision: 0
# Processed by: cddbd v1.5.2PL0 Copyright (c) Steve Scherf et al.
# Submitted via: ExactAudioCopy v0.99pb3
#
DISCID=8a098909
DTITLE=Various Artist - Poslední vlci [CD]
DYEAR=2016
DGENRE=Black Metal
TTITLE0=Aeon Winds - Echoes of Battle
TTITLE1=Aeon Winds - The Path of Devouring Flames
TTITLE2=Aeon Winds - In Times of Old
TTITLE3=Aeon Winds - Inno a Satana [Emperor cover]
TTITLE4=Concubia Nocte - Tok
TTITLE5=Concubia Nocte - Vlcou krvou
TTITLE6=Concubia Nocte - Mociare
TTITLE7=Concubia Nocte - Vecná vôla
TTITLE8=Concubia Nocte - S posledným lúcom slnka
EXTD=
EXTT0=
EXTT1=
EXTT2=
EXTT3=
EXTT4=
EXTT5=
EXTT6=
EXTT7=
EXTT8=
PLAYORDER=
